<mxfile host="app.diagrams.net" modified="2021-11-24T15:47:58.053Z" agent="5.0 (Windows NT 10.0; Win64; x64) AppleWebKit/537.36 (KHTML, like Gecko) Chrome/96.0.4664.45 Safari/537.36 Edg/96.0.1054.29" etag="Hr8MwWiRhPdbqpq9wpnX" version="15.8.5" type="github">
  <diagram id="C5RBs43oDa-KdzZeNtuy" name="Page-1">
    <mxGraphModel dx="3490" dy="1323" grid="1" gridSize="10" guides="1" tooltips="1" connect="1" arrows="1" fold="1" page="1" pageScale="1" pageWidth="1200" pageHeight="1920" math="0" shadow="0">
      <root>
        <mxCell id="WIyWlLk6GJQsqaUBKTNV-0" />
        <mxCell id="WIyWlLk6GJQsqaUBKTNV-1" parent="WIyWlLk6GJQsqaUBKTNV-0" />
        <mxCell id="fOBEBOPuVtPNNZ1_J9E4-1" value="" style="edgeStyle=orthogonalEdgeStyle;rounded=0;orthogonalLoop=1;jettySize=auto;html=1;" edge="1" parent="WIyWlLk6GJQsqaUBKTNV-1" source="WIyWlLk6GJQsqaUBKTNV-3" target="fOBEBOPuVtPNNZ1_J9E4-0">
          <mxGeometry relative="1" as="geometry" />
        </mxCell>
        <mxCell id="WIyWlLk6GJQsqaUBKTNV-3" value="Seleccionar linea para agendar" style="rounded=1;whiteSpace=wrap;html=1;fontSize=12;glass=0;strokeWidth=1;shadow=0;" parent="WIyWlLk6GJQsqaUBKTNV-1" vertex="1">
          <mxGeometry x="520" y="50" width="120" height="40" as="geometry" />
        </mxCell>
        <mxCell id="fOBEBOPuVtPNNZ1_J9E4-3" value="" style="edgeStyle=orthogonalEdgeStyle;rounded=0;orthogonalLoop=1;jettySize=auto;html=1;" edge="1" parent="WIyWlLk6GJQsqaUBKTNV-1" source="fOBEBOPuVtPNNZ1_J9E4-0" target="fOBEBOPuVtPNNZ1_J9E4-2">
          <mxGeometry relative="1" as="geometry" />
        </mxCell>
        <mxCell id="fOBEBOPuVtPNNZ1_J9E4-0" value="Request form" style="whiteSpace=wrap;html=1;rounded=1;shadow=0;strokeWidth=1;glass=0;" vertex="1" parent="WIyWlLk6GJQsqaUBKTNV-1">
          <mxGeometry x="520" y="160" width="120" height="60" as="geometry" />
        </mxCell>
        <mxCell id="fOBEBOPuVtPNNZ1_J9E4-5" value="" style="edgeStyle=orthogonalEdgeStyle;rounded=0;orthogonalLoop=1;jettySize=auto;html=1;" edge="1" parent="WIyWlLk6GJQsqaUBKTNV-1" source="fOBEBOPuVtPNNZ1_J9E4-2" target="fOBEBOPuVtPNNZ1_J9E4-4">
          <mxGeometry relative="1" as="geometry" />
        </mxCell>
        <mxCell id="fOBEBOPuVtPNNZ1_J9E4-2" value="Selecciono fecha y bloques" style="whiteSpace=wrap;html=1;rounded=1;shadow=0;strokeWidth=1;glass=0;" vertex="1" parent="WIyWlLk6GJQsqaUBKTNV-1">
          <mxGeometry x="520" y="270" width="120" height="60" as="geometry" />
        </mxCell>
        <mxCell id="fOBEBOPuVtPNNZ1_J9E4-7" value="Si" style="edgeStyle=orthogonalEdgeStyle;rounded=0;orthogonalLoop=1;jettySize=auto;html=1;" edge="1" parent="WIyWlLk6GJQsqaUBKTNV-1" source="fOBEBOPuVtPNNZ1_J9E4-4" target="fOBEBOPuVtPNNZ1_J9E4-6">
          <mxGeometry relative="1" as="geometry" />
        </mxCell>
        <mxCell id="fOBEBOPuVtPNNZ1_J9E4-13" value="" style="edgeStyle=orthogonalEdgeStyle;rounded=0;orthogonalLoop=1;jettySize=auto;html=1;" edge="1" parent="WIyWlLk6GJQsqaUBKTNV-1" source="fOBEBOPuVtPNNZ1_J9E4-4" target="fOBEBOPuVtPNNZ1_J9E4-12">
          <mxGeometry relative="1" as="geometry" />
        </mxCell>
        <mxCell id="fOBEBOPuVtPNNZ1_J9E4-4" value="Esta logeado" style="rhombus;whiteSpace=wrap;html=1;rounded=1;shadow=0;strokeWidth=1;glass=0;" vertex="1" parent="WIyWlLk6GJQsqaUBKTNV-1">
          <mxGeometry x="535" y="400" width="90" height="90" as="geometry" />
        </mxCell>
        <mxCell id="fOBEBOPuVtPNNZ1_J9E4-9" value="" style="edgeStyle=orthogonalEdgeStyle;rounded=0;orthogonalLoop=1;jettySize=auto;html=1;" edge="1" parent="WIyWlLk6GJQsqaUBKTNV-1" source="fOBEBOPuVtPNNZ1_J9E4-6" target="fOBEBOPuVtPNNZ1_J9E4-8">
          <mxGeometry relative="1" as="geometry" />
        </mxCell>
        <mxCell id="fOBEBOPuVtPNNZ1_J9E4-6" value="Tiene forms" style="rhombus;whiteSpace=wrap;html=1;rounded=1;shadow=0;strokeWidth=1;glass=0;" vertex="1" parent="WIyWlLk6GJQsqaUBKTNV-1">
          <mxGeometry x="710" y="405" width="80" height="80" as="geometry" />
        </mxCell>
        <mxCell id="fOBEBOPuVtPNNZ1_J9E4-11" value="" style="edgeStyle=orthogonalEdgeStyle;rounded=0;orthogonalLoop=1;jettySize=auto;html=1;" edge="1" parent="WIyWlLk6GJQsqaUBKTNV-1" source="fOBEBOPuVtPNNZ1_J9E4-8" target="fOBEBOPuVtPNNZ1_J9E4-10">
          <mxGeometry relative="1" as="geometry" />
        </mxCell>
        <mxCell id="fOBEBOPuVtPNNZ1_J9E4-8" value="Valida Forms" style="whiteSpace=wrap;html=1;rounded=1;shadow=0;strokeWidth=1;glass=0;" vertex="1" parent="WIyWlLk6GJQsqaUBKTNV-1">
          <mxGeometry x="850" y="415" width="120" height="60" as="geometry" />
        </mxCell>
        <mxCell id="fOBEBOPuVtPNNZ1_J9E4-10" value="Request reserva con meta forms" style="whiteSpace=wrap;html=1;rounded=1;shadow=0;strokeWidth=1;glass=0;" vertex="1" parent="WIyWlLk6GJQsqaUBKTNV-1">
          <mxGeometry x="1050" y="415" width="120" height="60" as="geometry" />
        </mxCell>
        <mxCell id="fOBEBOPuVtPNNZ1_J9E4-15" value="No" style="edgeStyle=orthogonalEdgeStyle;rounded=0;orthogonalLoop=1;jettySize=auto;html=1;" edge="1" parent="WIyWlLk6GJQsqaUBKTNV-1" source="fOBEBOPuVtPNNZ1_J9E4-12" target="fOBEBOPuVtPNNZ1_J9E4-14">
          <mxGeometry relative="1" as="geometry" />
        </mxCell>
        <mxCell id="fOBEBOPuVtPNNZ1_J9E4-17" value="No" style="edgeStyle=orthogonalEdgeStyle;rounded=0;orthogonalLoop=1;jettySize=auto;html=1;" edge="1" parent="WIyWlLk6GJQsqaUBKTNV-1" source="fOBEBOPuVtPNNZ1_J9E4-12" target="fOBEBOPuVtPNNZ1_J9E4-16">
          <mxGeometry relative="1" as="geometry" />
        </mxCell>
        <mxCell id="fOBEBOPuVtPNNZ1_J9E4-12" value="Tiene forms" style="rhombus;whiteSpace=wrap;html=1;rounded=1;shadow=0;strokeWidth=1;glass=0;" vertex="1" parent="WIyWlLk6GJQsqaUBKTNV-1">
          <mxGeometry x="370" y="405" width="80" height="80" as="geometry" />
        </mxCell>
        <mxCell id="fOBEBOPuVtPNNZ1_J9E4-37" value="" style="edgeStyle=orthogonalEdgeStyle;rounded=0;orthogonalLoop=1;jettySize=auto;html=1;" edge="1" parent="WIyWlLk6GJQsqaUBKTNV-1" source="fOBEBOPuVtPNNZ1_J9E4-14">
          <mxGeometry relative="1" as="geometry">
            <mxPoint x="410" y="727.5" as="targetPoint" />
          </mxGeometry>
        </mxCell>
        <mxCell id="fOBEBOPuVtPNNZ1_J9E4-14" value="Usar campos minimos:&amp;nbsp;&lt;br&gt;rut, name, email, telefono" style="whiteSpace=wrap;html=1;rounded=1;shadow=0;strokeWidth=1;glass=0;" vertex="1" parent="WIyWlLk6GJQsqaUBKTNV-1">
          <mxGeometry x="340" y="575" width="140" height="75" as="geometry" />
        </mxCell>
        <mxCell id="fOBEBOPuVtPNNZ1_J9E4-21" value="" style="edgeStyle=orthogonalEdgeStyle;rounded=0;orthogonalLoop=1;jettySize=auto;html=1;" edge="1" parent="WIyWlLk6GJQsqaUBKTNV-1" source="fOBEBOPuVtPNNZ1_J9E4-16" target="fOBEBOPuVtPNNZ1_J9E4-20">
          <mxGeometry relative="1" as="geometry" />
        </mxCell>
        <mxCell id="fOBEBOPuVtPNNZ1_J9E4-16" value="Valida forms" style="whiteSpace=wrap;html=1;rounded=1;shadow=0;strokeWidth=1;glass=0;" vertex="1" parent="WIyWlLk6GJQsqaUBKTNV-1">
          <mxGeometry x="190" y="415" width="120" height="60" as="geometry" />
        </mxCell>
        <mxCell id="fOBEBOPuVtPNNZ1_J9E4-23" value="Si" style="edgeStyle=orthogonalEdgeStyle;rounded=0;orthogonalLoop=1;jettySize=auto;html=1;" edge="1" parent="WIyWlLk6GJQsqaUBKTNV-1" source="fOBEBOPuVtPNNZ1_J9E4-20" target="fOBEBOPuVtPNNZ1_J9E4-22">
          <mxGeometry relative="1" as="geometry" />
        </mxCell>
        <mxCell id="fOBEBOPuVtPNNZ1_J9E4-25" value="No" style="edgeStyle=orthogonalEdgeStyle;rounded=0;orthogonalLoop=1;jettySize=auto;html=1;" edge="1" parent="WIyWlLk6GJQsqaUBKTNV-1" source="fOBEBOPuVtPNNZ1_J9E4-20" target="fOBEBOPuVtPNNZ1_J9E4-24">
          <mxGeometry relative="1" as="geometry" />
        </mxCell>
        <mxCell id="fOBEBOPuVtPNNZ1_J9E4-20" value="Esta el parametro temprary en la url" style="rhombus;whiteSpace=wrap;html=1;rounded=1;shadow=0;strokeWidth=1;glass=0;" vertex="1" parent="WIyWlLk6GJQsqaUBKTNV-1">
          <mxGeometry x="-50" y="375" width="140" height="140" as="geometry" />
        </mxCell>
        <mxCell id="fOBEBOPuVtPNNZ1_J9E4-22" value="Creo reserva como usuario temporal" style="whiteSpace=wrap;html=1;rounded=1;shadow=0;strokeWidth=1;glass=0;" vertex="1" parent="WIyWlLk6GJQsqaUBKTNV-1">
          <mxGeometry x="-40" y="635" width="120" height="60" as="geometry" />
        </mxCell>
        <mxCell id="fOBEBOPuVtPNNZ1_J9E4-27" value="" style="edgeStyle=orthogonalEdgeStyle;rounded=0;orthogonalLoop=1;jettySize=auto;html=1;" edge="1" parent="WIyWlLk6GJQsqaUBKTNV-1" source="fOBEBOPuVtPNNZ1_J9E4-24" target="fOBEBOPuVtPNNZ1_J9E4-26">
          <mxGeometry relative="1" as="geometry" />
        </mxCell>
        <mxCell id="fOBEBOPuVtPNNZ1_J9E4-24" value="Levantar modal login" style="whiteSpace=wrap;html=1;rounded=1;shadow=0;strokeWidth=1;glass=0;" vertex="1" parent="WIyWlLk6GJQsqaUBKTNV-1">
          <mxGeometry x="-260" y="415" width="120" height="60" as="geometry" />
        </mxCell>
        <mxCell id="fOBEBOPuVtPNNZ1_J9E4-29" value="Si" style="edgeStyle=orthogonalEdgeStyle;rounded=0;orthogonalLoop=1;jettySize=auto;html=1;" edge="1" parent="WIyWlLk6GJQsqaUBKTNV-1" source="fOBEBOPuVtPNNZ1_J9E4-26" target="fOBEBOPuVtPNNZ1_J9E4-28">
          <mxGeometry relative="1" as="geometry" />
        </mxCell>
        <mxCell id="fOBEBOPuVtPNNZ1_J9E4-31" value="No" style="edgeStyle=orthogonalEdgeStyle;rounded=0;orthogonalLoop=1;jettySize=auto;html=1;" edge="1" parent="WIyWlLk6GJQsqaUBKTNV-1" source="fOBEBOPuVtPNNZ1_J9E4-26" target="fOBEBOPuVtPNNZ1_J9E4-30">
          <mxGeometry relative="1" as="geometry" />
        </mxCell>
        <mxCell id="fOBEBOPuVtPNNZ1_J9E4-26" value="Temporal" style="rhombus;whiteSpace=wrap;html=1;rounded=1;shadow=0;strokeWidth=1;glass=0;" vertex="1" parent="WIyWlLk6GJQsqaUBKTNV-1">
          <mxGeometry x="-440" y="405" width="80" height="80" as="geometry" />
        </mxCell>
        <mxCell id="fOBEBOPuVtPNNZ1_J9E4-28" value="Creo Reserva como usuario temporal" style="whiteSpace=wrap;html=1;rounded=1;shadow=0;strokeWidth=1;glass=0;" vertex="1" parent="WIyWlLk6GJQsqaUBKTNV-1">
          <mxGeometry x="-620" y="415" width="120" height="60" as="geometry" />
        </mxCell>
        <mxCell id="fOBEBOPuVtPNNZ1_J9E4-33" value="" style="edgeStyle=orthogonalEdgeStyle;rounded=0;orthogonalLoop=1;jettySize=auto;html=1;" edge="1" parent="WIyWlLk6GJQsqaUBKTNV-1" source="fOBEBOPuVtPNNZ1_J9E4-30" target="fOBEBOPuVtPNNZ1_J9E4-32">
          <mxGeometry relative="1" as="geometry" />
        </mxCell>
        <mxCell id="fOBEBOPuVtPNNZ1_J9E4-30" value="Hacer login y guardar datos mergiados (tomar email de cuenta) lo demas usar del formualario" style="whiteSpace=wrap;html=1;rounded=1;shadow=0;strokeWidth=1;glass=0;" vertex="1" parent="WIyWlLk6GJQsqaUBKTNV-1">
          <mxGeometry x="-475" y="575" width="150" height="95" as="geometry" />
        </mxCell>
        <mxCell id="fOBEBOPuVtPNNZ1_J9E4-32" value="Crear Reserva" style="whiteSpace=wrap;html=1;rounded=1;shadow=0;strokeWidth=1;glass=0;" vertex="1" parent="WIyWlLk6GJQsqaUBKTNV-1">
          <mxGeometry x="-460" y="767.5" width="120" height="60" as="geometry" />
        </mxCell>
        <mxCell id="fOBEBOPuVtPNNZ1_J9E4-40" value="No" style="edgeStyle=orthogonalEdgeStyle;rounded=0;orthogonalLoop=1;jettySize=auto;html=1;" edge="1" parent="WIyWlLk6GJQsqaUBKTNV-1" source="fOBEBOPuVtPNNZ1_J9E4-38">
          <mxGeometry relative="1" as="geometry">
            <mxPoint x="570" y="797.5" as="targetPoint" />
          </mxGeometry>
        </mxCell>
        <mxCell id="fOBEBOPuVtPNNZ1_J9E4-38" value="Esta el parametro temprary en la url" style="rhombus;whiteSpace=wrap;html=1;rounded=1;shadow=0;strokeWidth=1;glass=0;" vertex="1" parent="WIyWlLk6GJQsqaUBKTNV-1">
          <mxGeometry x="340" y="727.5" width="140" height="140" as="geometry" />
        </mxCell>
        <mxCell id="fOBEBOPuVtPNNZ1_J9E4-43" value="" style="edgeStyle=orthogonalEdgeStyle;rounded=0;orthogonalLoop=1;jettySize=auto;html=1;" edge="1" parent="WIyWlLk6GJQsqaUBKTNV-1" source="fOBEBOPuVtPNNZ1_J9E4-41" target="fOBEBOPuVtPNNZ1_J9E4-42">
          <mxGeometry relative="1" as="geometry" />
        </mxCell>
        <mxCell id="fOBEBOPuVtPNNZ1_J9E4-41" value="Levantar modal login" style="whiteSpace=wrap;html=1;rounded=1;shadow=0;strokeWidth=1;glass=0;" vertex="1" parent="WIyWlLk6GJQsqaUBKTNV-1">
          <mxGeometry x="580" y="767.5" width="120" height="60" as="geometry" />
        </mxCell>
        <mxCell id="fOBEBOPuVtPNNZ1_J9E4-45" value="Si" style="edgeStyle=orthogonalEdgeStyle;rounded=0;orthogonalLoop=1;jettySize=auto;html=1;" edge="1" parent="WIyWlLk6GJQsqaUBKTNV-1" source="fOBEBOPuVtPNNZ1_J9E4-42">
          <mxGeometry relative="1" as="geometry">
            <mxPoint x="940" y="797.5" as="targetPoint" />
          </mxGeometry>
        </mxCell>
        <mxCell id="fOBEBOPuVtPNNZ1_J9E4-48" value="No" style="edgeStyle=orthogonalEdgeStyle;rounded=0;orthogonalLoop=1;jettySize=auto;html=1;" edge="1" parent="WIyWlLk6GJQsqaUBKTNV-1" source="fOBEBOPuVtPNNZ1_J9E4-42">
          <mxGeometry relative="1" as="geometry">
            <mxPoint x="840" y="927.5" as="targetPoint" />
          </mxGeometry>
        </mxCell>
        <mxCell id="fOBEBOPuVtPNNZ1_J9E4-42" value="Temporal" style="rhombus;whiteSpace=wrap;html=1;rounded=1;shadow=0;strokeWidth=1;glass=0;" vertex="1" parent="WIyWlLk6GJQsqaUBKTNV-1">
          <mxGeometry x="800" y="757.5" width="80" height="80" as="geometry" />
        </mxCell>
        <mxCell id="fOBEBOPuVtPNNZ1_J9E4-46" value="Creo Reserva como usuario temporal" style="whiteSpace=wrap;html=1;rounded=1;shadow=0;strokeWidth=1;glass=0;" vertex="1" parent="WIyWlLk6GJQsqaUBKTNV-1">
          <mxGeometry x="950" y="767.5" width="120" height="60" as="geometry" />
        </mxCell>
        <mxCell id="fOBEBOPuVtPNNZ1_J9E4-51" value="" style="edgeStyle=orthogonalEdgeStyle;rounded=0;orthogonalLoop=1;jettySize=auto;html=1;" edge="1" parent="WIyWlLk6GJQsqaUBKTNV-1" source="fOBEBOPuVtPNNZ1_J9E4-49">
          <mxGeometry relative="1" as="geometry">
            <mxPoint x="840" y="1122.5" as="targetPoint" />
          </mxGeometry>
        </mxCell>
        <mxCell id="fOBEBOPuVtPNNZ1_J9E4-49" value="Hacer login y guardar datos mergiados (tomar email de cuenta) lo demas usar del formualario" style="whiteSpace=wrap;html=1;rounded=1;shadow=0;strokeWidth=1;glass=0;" vertex="1" parent="WIyWlLk6GJQsqaUBKTNV-1">
          <mxGeometry x="765" y="930" width="150" height="95" as="geometry" />
        </mxCell>
        <mxCell id="fOBEBOPuVtPNNZ1_J9E4-52" value="Crear Reserva" style="whiteSpace=wrap;html=1;rounded=1;shadow=0;strokeWidth=1;glass=0;" vertex="1" parent="WIyWlLk6GJQsqaUBKTNV-1">
          <mxGeometry x="780" y="1130" width="120" height="60" as="geometry" />
        </mxCell>
      </root>
    </mxGraphModel>
  </diagram>
</mxfile>
